<svg width="469" height="132" viewBox="0 0 469 132" fill="none" xmlns="http://www.w3.org/2000/svg">
<g filter="url(#filter0_d_329_65)">
<path d="M126.988 50.4258L117.15 48.2871C116.295 45.668 115.235 43.1133 113.984 40.6523L119.431 32.1807C120.403 30.667 120.189 28.6797 118.918 27.4082L103.592 12.082C102.32 10.8105 100.333 10.5967 98.8193 11.5693L90.3477 17.0156C87.8867 15.7646 85.332 14.7051 82.7129 13.8496L80.5742 4.01172C80.1924 2.25391 78.6357 1 76.8369 1H55.1631C53.3643 1 51.8076 2.25391 51.4258 4.01172L49.2871 13.8496C46.668 14.7051 44.1133 15.7646 41.6523 17.0156L33.1807 11.5693C31.667 10.5967 29.6797 10.8105 28.4082 12.082L13.082 27.4082C11.8105 28.6797 11.5967 30.667 12.5693 32.1807L18.0156 40.6523C16.7646 43.1133 15.7051 45.668 14.8496 48.2871L5.01172 50.4258C3.25391 50.8086 2 52.3643 2 54.1631V75.8369C2 77.6357 3.25391 79.1914 5.01172 79.5742L14.8496 81.7129C15.7051 84.332 16.7646 86.8867 18.0156 89.3477L12.5693 97.8193C11.5967 99.333 11.8105 101.32 13.082 102.592L28.4082 117.918C29.6797 119.189 31.667 119.403 33.1807 118.431L41.6523 112.984C44.1133 114.235 46.668 115.295 49.2871 116.15L51.4258 125.988C51.8076 127.746 53.3643 129 55.1631 129H76.8369C78.6357 129 80.1924 127.746 80.5742 125.988L82.7129 116.15C85.332 115.295 87.8867 114.235 90.3477 112.984L98.8193 118.431C100.333 119.403 102.32 119.19 103.592 117.918L118.918 102.592C120.189 101.32 120.403 99.333 119.431 97.8193L113.984 89.3477C115.235 86.8867 116.295 84.332 117.15 81.7129L126.988 79.5742C128.746 79.1914 130 77.6357 130 75.8369V54.1631C130 52.3643 128.746 50.8086 126.988 50.4258Z" fill="#FFEE00"/>
<path fill-rule="evenodd" clip-rule="evenodd" d="M55.6563 55.8054C58.6085 56.8793 62.2856 57.52 66.28 57.52C70.1081 57.52 73.6452 56.9316 76.5322 55.9369C79.4286 54.939 81.6286 53.5472 82.8349 51.9724L83.5335 52.5076C82.1804 54.2739 79.7992 55.7421 76.8189 56.7689C73.8291 57.799 70.1938 58.4 66.28 58.4C62.1968 58.4 58.4162 57.7458 55.3554 56.6323C52.3067 55.5233 49.9196 53.9387 48.6959 52.0382L49.4358 51.5618C50.5109 53.2316 52.692 54.727 55.6563 55.8054Z" fill="#004688"/>
<path fill-rule="evenodd" clip-rule="evenodd" d="M75.3775 77.7123C72.5644 76.64 69.0598 76 65.2521 76C61.603 76 58.2318 76.5878 55.4808 77.581C52.7213 78.5772 50.6253 79.9665 49.4752 81.5397L48.7648 81.0203C50.0572 79.2525 52.3331 77.7818 55.182 76.7532C58.0393 75.7217 61.513 75.12 65.2521 75.12C69.1532 75.12 72.7656 75.7749 75.6909 76.89C78.6055 78.0011 80.8867 79.5884 82.0549 81.4897L81.3051 81.9504C80.2796 80.2814 78.2012 78.7887 75.3775 77.7123Z" fill="#004688"/>
<path fill-rule="evenodd" clip-rule="evenodd" d="M86.96 67.64H44.72V66.76H86.96V67.64Z" fill="#004688"/>
<path fill-rule="evenodd" clip-rule="evenodd" d="M75.1813 81.0947C77.5476 77.3544 79.04 72.1331 79.04 66.32C79.04 60.5069 77.5476 55.2856 75.1813 51.5453C72.8079 47.7939 69.6389 45.64 66.28 45.64C62.9211 45.64 59.7521 47.7939 57.3787 51.5453C55.0124 55.2856 53.52 60.5069 53.52 66.32C53.52 72.1331 55.0124 77.3544 57.3787 81.0947C59.7521 84.8461 62.9211 87 66.28 87C69.6389 87 72.8079 84.8461 75.1813 81.0947ZM66.28 87.88C73.8132 87.88 79.92 78.2273 79.92 66.32C79.92 54.4127 73.8132 44.76 66.28 44.76C58.7469 44.76 52.64 54.4127 52.64 66.32C52.64 78.2273 58.7469 87.88 66.28 87.88Z" fill="#004688"/>
<path fill-rule="evenodd" clip-rule="evenodd" d="M68.843 81.2473C69.7015 77.3447 70.24 71.9111 70.24 65.88C70.24 59.8489 69.7015 54.4153 68.843 50.5127C68.4121 48.5543 67.9107 47.0291 67.3832 46.0149C67.119 45.5068 66.8701 45.1704 66.6561 44.9713C66.4465 44.7764 66.3242 44.76 66.28 44.76C66.2358 44.76 66.1135 44.7764 65.9039 44.9713C65.6899 45.1704 65.4411 45.5068 65.1768 46.0149C64.6493 47.0291 64.1479 48.5543 63.7171 50.5127C62.8585 54.4153 62.32 59.8489 62.32 65.88C62.32 71.9111 62.8585 77.3447 63.7171 81.2473C64.1479 83.2057 64.6493 84.7309 65.1768 85.7451C65.4411 86.2532 65.6899 86.5896 65.9039 86.7887C66.1135 86.9836 66.2358 87 66.28 87C66.3242 87 66.4465 86.9836 66.6561 86.7887C66.8701 86.5896 67.119 86.2532 67.3832 85.7451C67.9107 84.7309 68.4121 83.2057 68.843 81.2473ZM66.28 87.88C68.9531 87.88 71.12 78.0303 71.12 65.88C71.12 53.7297 68.9531 43.88 66.28 43.88C63.6069 43.88 61.44 53.7297 61.44 65.88C61.44 78.0303 63.6069 87.88 66.28 87.88Z" fill="#004688"/>
<path fill-rule="evenodd" clip-rule="evenodd" d="M65.84 86.56C77.2612 86.56 86.52 77.3013 86.52 65.88C86.52 54.4588 77.2612 45.2 65.84 45.2C54.4187 45.2 45.16 54.4588 45.16 65.88C45.16 77.3013 54.4187 86.56 65.84 86.56ZM65.84 88.76C78.4763 88.76 88.72 78.5163 88.72 65.88C88.72 53.2437 78.4763 43 65.84 43C53.2037 43 42.96 53.2437 42.96 65.88C42.96 78.5163 53.2037 88.76 65.84 88.76Z" fill="#004688"/>
<path fill-rule="evenodd" clip-rule="evenodd" d="M50.7657 38.6902C46.413 41.5926 42.8369 45.842 39.8154 51.2375L37.9757 49.82C41.1142 44.2155 44.8247 40.0074 49.5452 36.8598C54.2772 33.7045 59.8832 32 66.5757 32C73.3641 32 79.1162 33.6312 83.7977 36.8848C88.4771 40.1371 91.5628 44.253 94 50.48L92.24 51.36C89.9263 45.4486 86.7911 41.6445 82.5421 38.6914C78.2951 35.7396 73.0028 34.2 66.5757 34.2C60.2808 34.2 55.1068 35.7955 50.7657 38.6902ZM50.4683 91.9553C54.5153 94.5146 59.359 95.8 65.6957 95.8C72.332 95.8 77.5114 94.6136 81.7609 92.1029C86.0084 89.5935 89.4314 85.6991 92.4471 80.0985L94.3842 81.1415C91.2399 86.9809 87.5693 91.2265 82.8799 93.9971C78.1925 96.7664 72.592 98 65.6957 98C59.045 98 53.7687 96.6454 49.2925 93.8147C44.8306 90.993 41.323 87.5189 37.9757 81.94L39.7989 80.0541C43.0516 85.4752 46.4071 89.387 50.4683 91.9553Z" fill="#004688"/>
<path fill-rule="evenodd" clip-rule="evenodd" d="M28 33.32H39.88V52.24H37.68V35.52H30.2V95.8H37.68V79.689H39.88V98H28V33.32Z" fill="#004688"/>
<path fill-rule="evenodd" clip-rule="evenodd" d="M104.12 33.32H92.24V52.24H94.44V35.52H101.92V95.8H94.44V79.689H92.24V98H104.12V33.32Z" fill="#004688"/>
<path fill-rule="evenodd" clip-rule="evenodd" d="M64.08 33.32V43.88H69.36V33.32H64.08Z" fill="#004688"/>
<path fill-rule="evenodd" clip-rule="evenodd" d="M63.2 87.88V97.56H69.36V87.88H63.2Z" fill="#004688"/>
</g>
<path fill-rule="evenodd" clip-rule="evenodd" d="M172.168 40.3653C165.511 41.4778 158.035 46.6179 155.126 52.0817C152.93 56.2053 150.154 69.6955 150.03 76.8419C149.92 83.172 150.011 83.5883 152.116 86.4067C155.507 90.9446 160.136 92.8671 167.554 92.8177C172.763 92.7834 174.143 92.4933 178.344 90.5543C181.398 89.1448 184.073 87.2764 185.652 85.4498C188.561 82.0869 191.384 77.097 190.727 76.4811C190.476 76.2458 188.061 76.0531 185.36 76.0531H180.45L177.798 79.0875C172.39 85.2756 162.867 84.9491 161.589 78.5312C161.085 76.001 162.903 63.9608 164.63 58.3899C166.72 51.6524 172.244 48.1584 178.313 49.7373C180.083 50.1976 181.051 51.1194 182.363 53.5955L184.086 56.848H189.495H194.904L194.899 54.9618C194.893 51.9274 193.431 47.7558 191.56 45.4292C188.214 41.2713 179.838 39.0833 172.168 40.3653ZM214.85 40.3893C207.115 41.9065 199.799 47.6515 197.219 54.232C195.399 58.8776 192.703 73.3383 192.725 78.3357C192.766 87.4664 199.156 92.7121 210.266 92.7382C217.091 92.7546 220.06 91.8451 225.549 88.0569C231.578 83.8956 233.838 79.3968 236.233 66.7935C238.274 56.0517 238.392 54.2114 237.28 50.4548C236.349 47.3127 231.975 42.5725 228.888 41.3605C225.825 40.1581 218.584 39.6574 214.85 40.3893ZM309.754 40.6115C302.903 42.0855 297.105 46.3483 293.909 52.2635C291.661 56.4214 288.549 71.3259 288.543 77.953C288.539 83.6192 290.178 86.8854 294.623 90.0639C302.055 95.3796 316.814 93.2087 324.159 85.7201C326.447 83.3874 329.505 78.2548 329.505 76.7465C329.505 76.3439 327.306 76.0531 324.259 76.0531H319.014L315.657 79.5676C312.626 82.7399 311.942 83.1137 308.616 83.4134C305.371 83.7056 303.5 83 303.5 83C303.5 83 301.39 82.3887 300.445 79.5676C299.5 76.7465 300.445 73.6854 300.445 73.6854C300.849 67.3854 303.171 57.4194 305.01 54.0832C306.582 51.2347 309.624 49.7257 313.882 49.6832C318.23 49.6406 320.21 50.9013 321.487 54.5304L322.303 56.848H327.756C334.222 56.848 334.528 56.5003 332.84 51.0577C331.514 46.7798 328.08 42.676 324.73 41.3632C321.266 40.0059 314.214 39.6519 309.754 40.6115ZM353.442 40.3845C346.545 41.5279 339.744 46.5719 336.631 52.8527C332.498 61.1884 330.286 79.0991 332.715 84.5506C333.939 87.2942 337.114 90.269 340.112 91.4775C345.438 93.625 354.141 93.2999 359.899 90.7381C363.82 88.9932 368.919 84.4025 370.783 80.9387C372.956 76.9022 376.322 61.283 376.322 55.241C376.322 48.2977 372.996 43.4072 366.761 41.1849C363.835 40.1417 357.284 39.748 353.442 40.3845ZM245.824 41.5868C245.474 42.6809 243.502 53.0022 241.665 63.364C241.263 65.6275 239.989 72.2635 238.833 78.1108C237.677 83.958 236.583 89.5906 236.402 90.6284L236.072 92.5146H241.809C247.165 92.5146 247.569 92.4124 247.902 90.9713C248.098 90.1229 249.452 83.255 250.909 75.7101C252.366 68.1653 253.663 61.8921 253.791 61.7693C253.919 61.6465 254.255 62.2268 254.536 63.0595C255.017 64.48 267.32 88.9068 268.681 91.1428C269.124 91.8698 270.816 92.2299 274.454 92.3719L279.601 92.5715L280.401 89.2854C280.841 87.4774 281.856 82.2947 282.656 77.7678C283.456 73.2409 285.269 63.6727 286.686 56.5051C288.102 49.3375 289.263 42.7789 289.266 41.9298C289.271 40.4668 288.987 40.3865 283.798 40.3865C278.71 40.3865 278.302 40.4949 277.993 41.9298C277.638 43.5725 273.651 63.3798 272.657 68.4328L272.065 71.4439L269.925 67.061C268.747 64.6501 265.206 57.6629 262.055 51.5323L256.326 40.3865H251.267C247.084 40.3865 246.143 40.5944 245.824 41.5868ZM381.933 54.9618C380.396 62.9785 378.174 74.3349 376.998 80.1986C375.822 86.063 374.608 91.9105 374.608 92.3653L380.607 92.5146H386.354L387.982 83.4265C390.239 70.8334 389.709 71.8341 393.993 72.0756L397.643 72.2807L400.566 80.8544C402.948 87.8421 405.108 92.3653 405.108 92.3653L411.366 92.5146H417.912L413.813 81.4092C411.288 74.5668 410.019 70.2086 410.508 70.0556C410.944 69.9191 412.831 68.858 414.7 67.6968C420.788 63.9162 424.161 56.0887 422.377 49.8793C421.315 46.1823 417.103 42.1548 413.248 41.1513C411.638 40.7322 404.618 40.3927 397.535 40.3906L384.731 40.3865L381.933 54.9618ZM430.824 41.0683C430.577 41.4435 429.752 45.0698 428.99 49.1276C424.248 74.3918 422.973 81.0354 422.016 85.4553L421.108 92.3653C421.108 92.3653 425.808 92.5422 435.027 92.3952C450.952 92.1421 452.711 91.6819 458.746 86.1927C463.196 82.1438 465.181 77.3021 467.441 64.9759C469.387 54.3568 469.395 54.1991 468.108 50.3636C466.626 45.9471 462.688 42.2158 458.301 41.0738C454.854 40.176 431.415 40.1712 430.824 41.0683ZM222.677 50.3204C225.839 51.8533 226.616 54.8774 225.616 61.7769C224.541 69.2044 222.244 77.3405 220.638 79.4133C217.173 83.8833 209.409 84.8511 206.084 81.2268C203.948 78.8982 203.902 75.1751 205.891 65.6439C207.839 56.3151 208.459 54.6689 210.831 52.542C214.432 49.3141 218.881 48.4794 222.677 50.3204ZM362.971 51.6997C365.16 54.0866 365.124 58.2219 362.821 68.8087C360.494 79.5072 357.95 82.7028 351.188 83.4175C348.096 83.744 347.63 83.5822 345.252 81.353C342.17 78.4626 342.102 77.5785 344.168 67.3429C346.298 56.7945 347.507 53.6895 350.233 51.7642C353.107 49.7332 354.679 49.3265 358.399 49.6502C360.429 49.8265 361.828 50.4541 362.971 51.6997ZM409.078 51.057C410.322 51.8732 410.704 52.8054 410.704 55.0194C410.704 60.794 407.17 63.0211 398.007 63.0211C392.51 63.0211 391.849 62.8873 392.067 61.8208C392.202 61.1609 392.696 58.6142 393.164 56.1621C393.633 53.71 394.14 51.3183 394.291 50.8464C394.718 49.5103 406.989 49.6845 409.078 51.057ZM454.539 51.7648C456.587 53.3801 456.79 53.9083 456.79 57.6066C456.79 61.9799 454.445 73.2107 452.726 77.0682C452.147 78.3673 450.444 80.2144 448.941 81.1712C446.561 82.6877 445.431 82.912 440.161 82.912C433.611 82.912 433.591 82.8969 434.802 78.9345C435.182 77.6944 436.523 70.9171 437.783 63.8723C439.043 56.8281 440.234 50.8224 440.428 50.5268C440.624 50.2312 443.372 49.9891 446.536 49.9891C451.658 49.9891 452.536 50.1839 454.539 51.7648Z" fill="#004688"/>
<defs>
<filter id="filter0_d_329_65" x="0" y="0" width="132" height="132" filterUnits="userSpaceOnUse" color-interpolation-filters="sRGB">
<feFlood flood-opacity="0" result="BackgroundImageFix"/>
<feColorMatrix in="SourceAlpha" type="matrix" values="0 0 0 0 0 0 0 0 0 0 0 0 0 0 0 0 0 0 127 0" result="hardAlpha"/>
<feOffset dy="1"/>
<feGaussianBlur stdDeviation="1"/>
<feComposite in2="hardAlpha" operator="out"/>
<feColorMatrix type="matrix" values="0 0 0 0 0 0 0 0 0 0 0 0 0 0 0 0 0 0 0.25 0"/>
<feBlend mode="normal" in2="BackgroundImageFix" result="effect1_dropShadow_329_65"/>
<feBlend mode="normal" in="SourceGraphic" in2="effect1_dropShadow_329_65" result="shape"/>
</filter>
</defs>
</svg>
